<svg width="200" height="200" viewBox="0 0 200 200" fill="none" xmlns="http://www.w3.org/2000/svg">
<rect width="200" height="200" fill="#164E97"/>
<path d="M101.162 56.4766C100.416 56.1775 99.5837 56.1775 98.8375 56.4766L61.5375 71.3953L76.5625 77.4016L115.025 62.0203L101.162 56.4766ZM123.438 65.3891L84.975 80.7703L100 86.7766L138.463 71.3953L123.438 65.3891ZM143.75 76.0141L103.125 92.2641V141.777L143.75 125.527V76.0141ZM96.875 141.783V92.2578L56.25 76.0141V125.533L96.875 141.783ZM96.5187 50.6703C98.7535 49.7766 101.246 49.7766 103.481 50.6703L148.037 68.4953C148.617 68.7275 149.113 69.1278 149.463 69.6446C149.813 70.1615 150 70.7712 150 71.3953V125.533C149.999 126.782 149.624 128.002 148.924 129.036C148.223 130.069 147.229 130.869 146.069 131.333L101.162 149.295C100.416 149.594 99.5837 149.594 98.8375 149.295L53.9375 131.333C52.7766 130.87 51.7809 130.071 51.079 129.037C50.3771 128.003 50.0013 126.782 50 125.533V71.3953C50.0001 70.7712 50.1871 70.1615 50.5369 69.6446C50.8867 69.1278 51.3832 68.7275 51.9625 68.4953L96.5187 50.6703Z" fill="white"/>
</svg>
